<?xml version="1.0" encoding="UTF-8" standalone="no"?>
<!-- Uploaded to: SVG Repo, www.svgrepo.com, Generator: SVG Repo Mixer Tools -->

<svg
   fill="#000000"
   width="800px"
   height="800px"
   viewBox="0 0 32 32"
   id="cup"
   version="1.1"
   xml:space="preserve"
   sodipodi:docname="kopi-tidak-sendiri.svg"
   inkscape:version="1.4 (86a8ad7, 2024-10-11)"
   xmlns:inkscape="http://www.inkscape.org/namespaces/inkscape"
   xmlns:sodipodi="http://sodipodi.sourceforge.net/DTD/sodipodi-0.dtd"
   xmlns="http://www.w3.org/2000/svg"
   xmlns:svg="http://www.w3.org/2000/svg"><defs
   id="defs2" /><sodipodi:namedview
   id="namedview2"
   pagecolor="#ffffff"
   bordercolor="#000000"
   borderopacity="0.25"
   inkscape:showpageshadow="2"
   inkscape:pageopacity="0.0"
   inkscape:pagecheckerboard="0"
   inkscape:deskcolor="#d1d1d1"
   inkscape:zoom="0.48878756"
   inkscape:cx="270.05597"
   inkscape:cy="338.5929"
   inkscape:window-width="1366"
   inkscape:window-height="715"
   inkscape:window-x="-8"
   inkscape:window-y="-8"
   inkscape:window-maximized="1"
   inkscape:current-layer="cup"
   showguides="false"><sodipodi:guide
     position="7.9855335,22.45208"
     orientation="1,0"
     id="guide1"
     inkscape:locked="false" /><sodipodi:guide
     position="24.014467,19.385172"
     orientation="1,0"
     id="guide2"
     inkscape:locked="false" /><sodipodi:guide
     position="3.0669078,27.891501"
     orientation="0,-1"
     id="guide3"
     inkscape:locked="false" /><sodipodi:guide
     position="1.5045208,7.9855335"
     orientation="0,-1"
     id="guide4"
     inkscape:locked="false" /><sodipodi:guide
     position="9.6636528,31.884268"
     orientation="0,-1"
     id="guide5"
     inkscape:locked="false" /></sodipodi:namedview>



<g
   id="g2"
   transform="matrix(-0.47170801,0,0,0.5201197,24.019037,2.7907698)"
   style="stroke-width:0.368886;stroke-dasharray:none;stroke:#ab6832;stroke-opacity:1;fill:none">

<path
   d="m 24.6,25 h 0.9 C 28,25 30,23 30,20.5 30,18.2 28.2,16.3 26,16.1 V 15 c 0,-0.6 -0.4,-1 -1,-1 H 7 c -0.6,0 -1,0.4 -1,1 v 5 c 0,3.3 1.6,6.2 4,8 H 5 c -0.6,0 -1,0.4 -1,1 0,0.6 0.4,1 1,1 h 22 c 0.6,0 1,-0.4 1,-1 0,-0.6 -0.4,-1 -1,-1 h -5 c 1.1,-0.8 2,-1.8 2.6,-3 z M 28,20.5 C 28,21.9 26.9,23 25.5,23 25.8,22.1 26,21 26,20 v -1.9 c 1.1,0.2 2,1.2 2,2.4 z M 24,16 v 2.4 C 22.9,18.9 19.9,19.8 16.4,18.1 12.9,16.4 9.8,17.3 8,18.2 V 16 Z M 8,20.5 c 1,-0.7 4,-2.3 7.5,-0.6 1.8,0.9 3.5,1.1 5,1.1 1.4,0 2.6,-0.3 3.5,-0.5 -0.1,1 -0.3,2 -0.7,2.8 -0.1,0.1 -0.2,0.3 -0.2,0.4 -1.4,2.5 -4,4.2 -7,4.2 C 11.8,28 8.3,24.7 8,20.5 Z"
   id="path1"
   style="stroke-width:0.368886;stroke-dasharray:none;stroke:#ab6832;stroke-opacity:1;fill:none" />

<path
   d="m 11,11 h 3 c 0.3,0 0.5,0.2 0.5,0.5 V 12 c 0,0.6 0.4,1 1,1 0.6,0 1,-0.4 1,-1 V 11.5 C 16.5,10.1 15.4,9 14,9 H 11 C 10.7,9 10.5,8.8 10.5,8.5 10.5,8.2 10.7,8 11,8 h 9.5 c 1.7,0 3,-1.3 3,-3 0,-1.7 -1.3,-3 -3,-3 h -10 c -0.6,0 -1,0.4 -1,1 0,0.6 0.4,1 1,1 h 10 c 0.6,0 1,0.4 1,1 0,0.6 -0.4,1 -1,1 H 11 C 9.6,6 8.5,7.1 8.5,8.5 8.5,9.9 9.6,11 11,11 Z"
   id="path2"
   style="stroke-width:0.368886;stroke-dasharray:none;stroke:#ab6832;stroke-opacity:1;fill:none" />

</g><text
   xml:space="preserve"
   style="font-style:normal;font-variant:normal;font-weight:normal;font-stretch:normal;font-size:2.91982px;font-family:Sans;-inkscape-font-specification:Sans;text-align:start;writing-mode:lr-tb;direction:ltr;text-anchor:start;fill:#000000;fill-opacity:1;stroke:none;stroke-width:0.273733;stroke-dasharray:none;stroke-opacity:1"
   x="12.310304"
   y="22.790842"
   id="text3"><tspan
     sodipodi:role="line"
     id="tspan3"
     style="fill:#ab6832;fill-opacity:1;stroke:none;stroke-width:0.273733"
     x="12.310304"
     y="22.790842">KOPI</tspan></text><text
   xml:space="preserve"
   style="font-style:normal;font-variant:normal;font-weight:normal;font-stretch:normal;font-size:2.79153px;font-family:'Courier New';-inkscape-font-specification:'Courier New';text-align:start;writing-mode:lr-tb;direction:ltr;text-anchor:start;fill:none;stroke:#000000;stroke-width:0.26172;stroke-dasharray:none;stroke-opacity:1"
   x="6.7005529"
   y="29.883295"
   id="text4"
   transform="scale(1.0809282,0.92513082)"><tspan
     sodipodi:role="line"
     id="tspan4"
     style="stroke:#ab6832;stroke-width:0.26172;stroke-dasharray:none;stroke-opacity:1"
     x="6.7005529"
     y="29.883295">Tidak</tspan></text><text
   xml:space="preserve"
   style="font-style:normal;font-variant:normal;font-weight:normal;font-stretch:normal;font-size:3.51839px;font-family:'Segoe Script';-inkscape-font-specification:'Segoe Script';text-align:start;writing-mode:lr-tb;direction:ltr;text-anchor:start;fill:#000000;fill-opacity:1;stroke:none;stroke-width:0.179353;stroke-dasharray:none;stroke-opacity:1"
   x="10.755424"
   y="31.083721"
   id="text5"><tspan
     sodipodi:role="line"
     id="tspan5"
     style="fill:#ab6832;fill-opacity:1;stroke:none;stroke-width:0.179353;stroke-dasharray:none"
     x="10.755424"
     y="31.083721">Sendiri</tspan></text><rect
   style="fill:#ab6832;fill-opacity:1;stroke:none;stroke-width:0.15102;stroke-dasharray:none;stroke-opacity:1"
   id="rect6"
   width="3.7613022"
   height="0.28933093"
   x="8.9692593"
   y="22.474215" /><rect
   style="fill:#ab6832;fill-opacity:1;stroke:none;stroke-width:0.136111;stroke-dasharray:none;stroke-opacity:1"
   id="rect6-0"
   width="3.8191683"
   height="0.23146474"
   x="19.439993"
   y="20.640003" /><path
   id="rect4"
   style="fill:none;stroke:#ab6832;stroke-width:0.18757;stroke-opacity:1"
   d="M 16.057867,0.54050394 A 7.0961922,3.9944644 0 0 0 8.9616285,4.5349774 7.0961922,3.9944644 0 0 0 8.9886201,4.7665808 H 8.9613538 V 24.740668 H 23.103488 V 4.9691067 a 7.0961922,3.9944644 0 0 0 0.05055,-0.4341293 7.0961922,3.9944644 0 0 0 -7.096171,-3.99447346 z" /></svg>
